<?xml version="1.0" standalone="no"?>
<!DOCTYPE svg PUBLIC "-//W3C//DTD SVG 20010904//EN" "http://www.w3.org/TR/2001/REC-SVG-20010904/DTD/svg10.dtd">
<!-- Created using Krita: https://krita.org -->
<svg xmlns="http://www.w3.org/2000/svg" 
    xmlns:xlink="http://www.w3.org/1999/xlink"
    xmlns:krita="http://krita.org/namespaces/svg/krita"
    xmlns:sodipodi="http://sodipodi.sourceforge.net/DTD/sodipodi-0.dtd"
    width="1440pt"
    height="1440pt"
    viewBox="0 0 1440 1440">
<defs/>
<path id="shape0" transform="translate(16.131322941973, 181.620011750064)" fill="#ffffff" fill-rule="evenodd" stroke="#ffffff" stroke-width="18" stroke-linecap="square" stroke-linejoin="bevel" d="M339.125 432.577C271.3 432.12 158.259 431.357 0 430.289C328.328 229.664 562.847 86.3602 703.559 0.37809C703.559 0.201648 703.559 0.0756179 703.559 0C703.621 0.037809 703.724 0.100824 703.869 0.189045C704.013 0.100841 704.116 0.0378375 704.178 3.56272e-05C704.178 0.176444 704.178 0.30245 704.178 0.378054C844.89 86.3602 1079.41 229.664 1407.74 430.289C1249.48 431.357 1136.44 432.12 1068.61 432.577C1067.99 583.636 1066.64 722.001 1065.19 1074.47C992.927 1074.93 872.486 1075.69 703.869 1076.76C703.869 1076.76 703.869 1076.76 703.869 1076.76C703.828 1076.76 703.726 1076.76 703.562 1076.76C703.561 1076.76 703.56 1076.76 703.559 1076.76C703.559 995.736 703.559 860.699 703.559 671.648C703.499 671.351 703.399 670.856 703.26 670.163C702.878 669.597 702.606 669.193 702.442 668.951C701.876 668.569 701.472 668.297 701.23 668.133C700.933 668.073 700.438 667.973 699.745 667.833C602.904 667.833 533.733 667.833 492.23 667.833C492.032 667.873 491.537 667.973 490.745 668.133C490.098 668.569 489.694 668.842 489.532 668.951C489.369 669.193 489.096 669.597 488.715 670.163C488.575 670.856 488.475 671.351 488.415 671.648C488.415 860.064 488.415 994.648 488.415 1075.4C444.469 1075.12 410.288 1074.9 341.927 1074.47C341.305 923.412 340.371 709.448 339.125 432.577"/>
</svg>
