<?xml version="1.0" standalone="no"?>
<!DOCTYPE svg PUBLIC "-//W3C//DTD SVG 20010904//EN" "http://www.w3.org/TR/2001/REC-SVG-20010904/DTD/svg10.dtd">
<!-- Created using Krita: https://krita.org -->
<svg xmlns="http://www.w3.org/2000/svg" 
    xmlns:xlink="http://www.w3.org/1999/xlink"
    xmlns:krita="http://krita.org/namespaces/svg/krita"
    xmlns:sodipodi="http://sodipodi.sourceforge.net/DTD/sodipodi-0.dtd"
    width="1440pt"
    height="1440pt"
    viewBox="0 0 1440 1440">
<defs>
  <linearGradient id="gradient0" gradientUnits="objectBoundingBox" x1="0" y1="0" x2="1" y2="1" spreadMethod="pad">
   <stop stop-color="#ee4777" offset="0.170886069536209" stop-opacity="1"/>
   <stop stop-color="#f6d666" offset="0.462025314569473" stop-opacity="1"/>
   <stop stop-color="#5198bc" offset="0.753164529800415" stop-opacity="1"/>
  </linearGradient>
 </defs>
<path id="shape0" transform="translate(412.965787920534, 182.935929667547)" fill="#ffffff" fill-rule="evenodd" stroke="#ffffff" stroke-width="18" stroke-linecap="square" stroke-linejoin="bevel" d="M343.034 243.304C379.514 244.84 522.221 308.243 616.634 254.824C657.1 231.928 656.638 145.751 745.514 1.38407C763.188 -4.19827 768.614 2.9651 863.594 102.184C916.638 259.711 909.429 231.842 929.114 345.544C943.356 427.803 934.567 485.696 929.474 520.144C920.191 582.928 892.76 640.347 881.954 654.064C811.807 702.47 740.032 637.541 821.114 675.304C855.192 700.609 890.343 784.825 898.874 810.664C914.81 858.928 908.487 879.857 916.154 899.944C924.259 921.177 990.213 1009.4 979.514 1016.58C915.124 967.645 939.464 970.692 914.714 976.264C894.729 980.763 932.822 958.863 858.914 1106.22C851.295 1124.68 842.849 1023.95 834.794 1019.46C826.328 1014.75 855.455 953.577 751.994 1065.54C730.854 1082.85 812.853 951.895 785.114 839.464C706.216 707.499 692.459 740.483 598.634 717.784C513.704 709.768 474.797 621.078 438.074 616.264C380.142 608.67 208.193 612.377 131.354 708.424C97.0656 751.284 117.131 823.397 121.274 850.984C123.243 864.096 124.626 871.819 145.754 914.344C146.155 933.436 84.3783 852.239 78.0742 855.304C72.204 858.158 91.713 954.463 82.0342 939.544C34.1227 864.718 62.4066 844.929 50.7142 840.904C43.9986 838.592 -10.3599 889.35 1.75418 874.024C38.6225 792.376 47.3857 793.136 50.8397 771.658C58.5852 723.497 -11.4431 617.935 29.1142 521.224C58.328 451.562 196.538 373 343.034 243.304"/><path id="shape1" transform="translate(26.9999994131873, 225.926320422902)" fill="url(#gradient0)" fill-rule="evenodd" stroke="#ffffff" stroke-width="18" stroke-linecap="butt" stroke-linejoin="bevel" d="M131.04 741.034C131.04 741.034 122.921 616.25 223.56 554.914C223.039 529.577 222.239 529.873 210.24 519.274C28.3208 557.634 18.1267 463.336 0 440.074C0.233345 434.091 176.092 443.372 192.96 427.114C195.788 419.495 198.694 436.583 191.52 415.594C184.346 394.604 -0.330217 377.127 23.04 249.994C65.4902 272.261 120.761 309.388 176.76 328.474C189.43 326.808 180.754 333.841 214.56 301.834C140.213 237.533 22.2202 144.38 276.495 4.31805C330.744 -26.2909 270.73 170.41 304.56 225.514C304.625 230.591 445.968 150.219 607.68 169.354C769.392 188.488 804.667 212.032 836.64 226.954C858.414 236.548 911.133 62.91 907.2 3.75367C935.666 -17.2427 1071.56 52.0532 1073.52 156.394C1086.96 260.238 962.955 346.59 948.034 343.778C974.832 358.845 1043.38 366.528 1228.32 294.634C1208.78 435.86 1055.69 488.465 1000.08 478.234C937.987 477.002 875.308 451.896 939.24 494.074C985.892 521.851 1199.44 519.397 1198.08 526.474C1196.72 533.551 1148.69 632.589 942.12 583.354C911.014 584.293 997.842 578.418 1014.21 705.372C1021.41 739.667 1034.81 822.314 977.76 912.394C962.491 915.683 946.027 837.222 938.52 835.714C931.013 834.205 927.729 855.468 875.52 869.194C833.166 877.694 923.916 784.13 923.04 765.514C941.157 729.605 878.497 684.161 875.52 679.114C846.263 663.266 873.709 737.981 518.4 709.354C461.171 704.486 311.962 650.758 299.88 638.434C213.279 656.709 185.5 721.938 177.12 748.234C168.74 774.529 197.688 813.704 194.4 815.914C191.112 818.123 152.829 808.183 155.52 787.114C138.865 790.737 128.767 842.84 125.28 841.834C121.793 840.827 86.232 807.514 131.04 741.034"/>
</svg>
